<?xml version="1.0" encoding="UTF-8"?>
<svg width="15px" height="20px" viewBox="0 0 15 20" version="1.1" xmlns="http://www.w3.org/2000/svg" xmlns:xlink="http://www.w3.org/1999/xlink">
    <!-- Generator: Sketch 45.1 (43504) - http://www.bohemiancoding.com/sketch -->
    <title>delete-20</title>
    <desc>Created with Sketch.</desc>
    <defs>
        <rect id="path-1" x="0" y="0" width="20" height="20"></rect>
    </defs>
    <g id="Home+Deal-Setup" stroke="none" stroke-width="1" fill="none" fill-rule="evenodd">
        <g id="home-new-design-1.1" transform="translate(-624.000000, -339.000000)">
            <g id="Group-9" transform="translate(536.000000, 338.000000)">
                <g id="delete-ico-20" transform="translate(85.000000, 1.000000)">
                    <g id="Rectangle-9" opacity="0">
                        <use fill="#D8D8D8" fill-rule="evenodd" xlink:href="#path-1"></use>
                        <rect stroke="#979797" stroke-width="1" x="0.5" y="0.5" width="19" height="19"></rect>
                    </g>
                    <path d="M7.28571429,0 L13,0 L13,1.42857143 L7.28571429,1.42857143 L7.28571429,0 Z M3,2.14285714 L3,5.71428571 L3.71428571,5.71428571 L3.71428571,20 L16.5714286,20 L16.5714286,5.71428571 L17.2857143,5.71428571 L17.2857143,2.14285714 L3,2.14285714 Z M15.1428571,18.5714286 L5.14285714,18.5714286 L5.14285714,7.14285714 L15.1428571,7.14285714 L15.1428571,18.5714286 Z" id="Shape" fill="#000000" fill-rule="nonzero"></path>
                    <path d="M6.57142857,8.57142857 L7.28571429,8.57142857 L7.28571429,17.1428571 L6.57142857,17.1428571 L6.57142857,8.57142857 Z M8.71428571,8.57142857 L9.42857143,8.57142857 L9.42857143,17.1428571 L8.71428571,17.1428571 L8.71428571,8.57142857 Z M10.8571429,8.57142857 L11.5714286,8.57142857 L11.5714286,17.1428571 L10.8571429,17.1428571 L10.8571429,8.57142857 Z M13,8.57142857 L13.7142857,8.57142857 L13.7142857,17.1428571 L13,17.1428571 L13,8.57142857 Z" id="Shape" fill="#000000" fill-rule="nonzero"></path>
                </g>
            </g>
        </g>
    </g>
</svg>